<svg width="24" height="20" viewBox="0 0 24 20" fill="none" xmlns="http://www.w3.org/2000/svg">
<path d="M5.45208 4.57612C6.35631 2.34692 8.62119 0.238281 12 0.238281C15.6352 0.238281 18.7335 2.71168 19.4128 6.71428C20.3719 6.85785 21.3762 7.2252 22.2031 7.83945C23.2309 8.60291 24 9.76622 24 11.3195C24 12.8256 23.3659 14.0238 22.3336 14.8269C21.3217 15.6142 19.9749 15.9883 18.5625 15.9883H15C14.5858 15.9883 14.25 15.6525 14.25 15.2383C14.25 14.8241 14.5858 14.4883 15 14.4883H18.5625C19.7283 14.4883 20.7252 14.1777 21.4125 13.643C22.0794 13.1242 22.5 12.363 22.5 11.3195C22.5 10.3233 22.0269 9.57717 21.3086 9.04359C20.5718 8.49628 19.5953 8.19357 18.7129 8.14986C18.3434 8.13156 18.0425 7.84664 18.0041 7.47874C17.6262 3.86332 15.0277 1.73828 12 1.73828C9.14101 1.73828 7.31311 3.62435 6.71419 5.49227C6.62259 5.77794 6.36958 5.98155 6.07093 6.00992C3.48645 6.25545 1.5 7.84655 1.5 10.2508C1.5 12.6678 3.58853 14.4883 6.375 14.4883H9C9.41421 14.4883 9.75 14.8241 9.75 15.2383C9.75 15.6525 9.41421 15.9883 9 15.9883H6.375C2.97397 15.9883 0 13.695 0 10.2508C0 6.97517 2.59336 5.0182 5.45208 4.57612Z" fill="#262626"/>
<path d="M12.5303 6.45795L15.5303 9.45795C15.8232 9.75084 15.8232 10.2257 15.5303 10.5186C15.2374 10.8115 14.7626 10.8115 14.4697 10.5186L12.75 8.79894V19.008C12.75 19.4222 12.4142 19.758 12 19.758C11.5858 19.758 11.25 19.4222 11.25 19.008V8.79894L9.53033 10.5186C9.23744 10.8115 8.76256 10.8115 8.46967 10.5186C8.17678 10.2257 8.17678 9.75084 8.46967 9.45795L11.4697 6.45795C11.7626 6.16506 12.2374 6.16506 12.5303 6.45795Z" fill="#262626"/>
</svg>
