<svg width="131" height="170" viewBox="0 0 131 170" fill="none" xmlns="http://www.w3.org/2000/svg">
<g opacity="0.6" clip-path="url(#clip0_6127_38446)">
<path d="M29.7891 140.047L11.1065 137.344L9.5957 149.104L30.8406 151.947L29.7891 140.047Z" fill="#A6A6A6"/>
<path d="M29.6791 153.129L9.97266 155.02L12.4685 166.925L37.4267 165.317L29.6791 153.129Z" fill="#B1B1B1"/>
<path d="M130.907 105.348C129.385 135.644 109.994 152.978 89.092 161.935C72.9439 168.844 55.8937 170.752 45.4954 169.756C21.644 167.475 17.1062 141.051 29.2698 137.302C40.371 133.88 57.7476 143.599 76.0982 136.617C77.8636 135.944 79.64 135.121 81.4164 134.114C94.2828 126.826 105.506 103.829 99.7725 85.4376C96.679 75.5132 88.6437 66.9295 73.2593 62.8796C72.2521 62.607 71.2117 62.3678 70.1437 62.1397C92.1799 78.495 87.7749 102.638 74.438 115.467C61.0956 128.301 34.3998 132.401 18.379 116.44C2.34709 100.486 -0.303682 65.2939 29.956 46.9305C68.7048 23.4101 133.757 48.7217 130.912 105.353L130.907 105.348Z" fill="#E7E7E8"/>
<path d="M95.4495 160.254C94.9791 160.254 94.5253 160.01 94.2763 159.57L80.2421 134.781C79.8769 134.131 80.0983 133.307 80.7457 132.934C81.3932 132.567 82.2122 132.79 82.583 133.441L96.6171 158.229C96.9824 158.88 96.761 159.704 96.1136 160.076C95.9033 160.199 95.6764 160.254 95.4495 160.254Z" fill="#7D7980"/>
<path d="M89.0913 161.932C84.9685 163.695 80.7848 165.136 76.6731 166.282C64.6699 169.631 53.2367 170.499 45.4947 169.754C21.6433 167.473 17.1055 141.048 29.2691 137.299C39.518 134.139 55.1127 142.178 71.8807 137.939C73.2752 137.588 74.6808 137.149 76.092 136.615L89.0857 161.938L89.0913 161.932Z" fill="#B1B1B1"/>
<path d="M89.2635 147.975L83.4473 150.934L80.127 144.459L85.4285 141.199L89.2635 147.975Z" fill="#7D7980"/>
<path d="M23.9127 59.2175C22.2304 59.2175 20.0887 58.4943 17.8807 55.8519C17.4048 55.2789 17.4767 54.4278 18.0467 53.9438C18.6167 53.4654 19.4634 53.5377 19.9449 54.1107C21.9149 56.4749 23.874 57.098 25.761 55.9687C26.4639 55.5459 27.0339 54.9562 27.4655 54.3499C27.3659 54.233 27.2718 54.1162 27.1833 53.9994C26.154 52.6365 25.9105 51.1734 26.5579 50.1832C26.807 49.7993 27.5707 48.9426 29.2087 49.3376C30.2989 49.6046 31.0017 50.4947 31.0958 51.7241C31.1345 52.2749 31.0515 52.8979 30.8523 53.5432C31.5164 53.8214 32.3852 53.9438 33.4422 53.6044C33.8849 53.4654 34.1727 53.2206 34.383 52.8089C35.0858 51.4237 34.4826 48.8035 34.2169 47.9913C34.0399 47.4462 34.2169 46.8454 34.6707 46.4949C35.1245 46.1444 35.7499 46.1166 36.2258 46.4337C38.6773 48.0414 41.3392 48.2417 43.3369 46.9622C44.8366 46.0054 45.6224 44.3976 45.39 42.7677C45.0082 40.0585 42.0586 37.6998 37.3049 36.2979C36.591 36.0865 36.1815 35.3355 36.3918 34.6179C36.6021 33.9002 37.3492 33.4886 38.063 33.7C46.0264 36.042 47.742 40.1475 48.0574 42.3838C48.4392 45.0819 47.183 47.7076 44.7813 49.243C42.6009 50.6393 39.9501 50.8786 37.3547 49.9829C37.4764 51.2735 37.4156 52.7811 36.7847 54.0272C36.2534 55.0731 35.3846 55.8185 34.2612 56.1801C32.4903 56.7475 30.9076 56.5306 29.6348 55.9465C28.7771 57.1369 27.5983 58.1884 26.2093 58.7558C25.6282 58.995 24.8424 59.2119 23.9182 59.2119L23.9127 59.2175Z" fill="#A6A6A6"/>
<path d="M99.7709 85.4317C96.6775 75.5072 88.6421 66.9235 73.2577 62.8736C70.048 60.8765 66.1466 59.4524 61.3652 58.9128C93.3792 51.1079 108.808 65.1489 99.7709 85.4261V85.4317Z" fill="#CFCFCF"/>
<path d="M74.4381 40.3707C74.4049 40.3707 74.3772 40.3707 74.344 40.3707C73.6025 40.3206 73.0436 39.6697 73.0934 38.9243C73.8017 28.7328 72.1969 19.9822 68.4559 13.6237C65.2628 8.19421 60.4981 4.56713 55.036 3.41559C44.5824 1.20707 34.2892 7.94944 29.8565 19.8376L32.9555 29.7843C33.1769 30.4963 32.784 31.2584 32.0756 31.481C31.3673 31.7035 30.6091 31.3085 30.3878 30.5964L27.1504 20.2103C27.0618 19.9266 27.0674 19.6262 27.167 19.348C29.5964 12.5556 33.7247 7.19287 39.1148 3.84394C44.195 0.689711 50.0444 -0.406202 55.5894 0.767593C61.7985 2.08046 67.1886 6.15815 70.7691 12.2441C74.7868 19.0755 76.5189 28.3657 75.7718 39.1079C75.722 39.8199 75.1299 40.3651 74.4326 40.3651L74.4381 40.3707Z" fill="#A6A6A6"/>
<path d="M89.7549 78.6651C89.2236 78.6651 88.8086 78.5093 88.5374 78.3647C86.9769 77.5358 86.263 75.255 86.2796 71.1884C86.2796 70.443 86.8828 69.8422 87.6243 69.8422C88.3659 69.8422 88.9691 70.4541 88.9635 71.1995C88.9469 74.9768 89.6498 75.8335 89.777 75.9559C89.9265 75.9281 90.3913 75.7111 91.0886 74.9268C94.8019 70.7656 99.1958 58.1042 97.912 46.9337C95.7703 28.2253 87.1871 17.7891 87.0986 17.6834C86.6227 17.1104 86.6946 16.2593 87.2591 15.7753C87.8235 15.2969 88.6758 15.3636 89.1517 15.9366C89.528 16.3816 98.3381 27.0515 100.585 46.6222C102.118 59.9901 96.2629 74.8544 91.7195 77.9697C90.9613 78.4926 90.2917 78.6595 89.7438 78.6595L89.7549 78.6651Z" fill="#A6A6A6"/>
<path d="M85.377 18.6012C84.807 18.6012 84.237 18.5066 83.6892 18.3175L77.9449 16.337C77.2421 16.0923 76.8658 15.3246 77.1093 14.6181C77.3528 13.9116 78.1165 13.5333 78.8193 13.7781L84.5635 15.7585C85.2553 15.9977 86.0134 15.9198 86.6443 15.5471L86.8491 15.4247C87.8839 14.8183 88.4982 13.6946 88.4595 12.493L88.2104 4.72148C88.1883 3.97604 88.7694 3.34742 89.5109 3.32516C90.2525 3.29735 90.8778 3.88703 90.8999 4.63247L91.149 12.404C91.2209 14.6014 90.092 16.6486 88.2049 17.7612L88.0001 17.8836C87.1922 18.3564 86.2846 18.6012 85.3715 18.6012H85.377Z" fill="#A6A6A6"/>
<path d="M87.0207 16.4109C86.4285 16.4109 85.8419 16.1606 85.4158 15.6822L78.0169 7.76044C77.5078 7.21526 77.5354 6.35856 78.0778 5.84676C78.6201 5.33496 79.4723 5.36278 79.9815 5.90795L85.7534 12.0885L82.3445 1.78576C82.112 1.07926 82.4939 0.311566 83.1967 0.0723568C83.905 -0.16129 84.6632 0.222558 84.9012 0.92906L89.0738 13.5515C89.4003 14.5362 89.0018 15.5932 88.1053 16.1105C87.7622 16.3108 87.3859 16.4054 87.0151 16.4054L87.0207 16.4109ZM87.397 13.8464L87.408 13.8575C87.408 13.8575 87.4025 13.8519 87.397 13.8464Z" fill="#A6A6A6"/>
<path d="M25.9817 34.0346C25.8987 34.0346 25.8102 34.0291 25.7272 34.0124C24.9967 33.8733 24.5208 33.1612 24.6591 32.4269L25.9098 25.8959L23.7349 29.078C23.3144 29.6955 22.4732 29.8512 21.8645 29.4284C21.2502 29.0057 21.0952 28.1601 21.5158 27.5481L27.3375 19.0367C27.6973 18.5083 28.3779 18.308 28.9645 18.5528C29.5511 18.7975 29.8887 19.4262 29.767 20.0548L27.3043 32.9387C27.1826 33.584 26.6181 34.0346 25.9817 34.0346Z" fill="#A6A6A6"/>
<path d="M34.9198 22.6261C34.8202 22.6261 34.7206 22.615 34.6209 22.5927L28.1462 21.1241C27.4213 20.9572 26.9675 20.234 27.128 19.5052C27.294 18.7765 28.0134 18.3203 28.7383 18.4816L35.2131 19.9503C35.938 20.1172 36.3918 20.8404 36.2313 21.5691C36.093 22.1977 35.534 22.6261 34.9198 22.6261Z" fill="#A6A6A6"/>
<path d="M67.327 121.607C66.9617 121.607 66.6075 121.423 66.3973 121.09C66.0818 120.578 66.2368 119.899 66.7459 119.582C80.531 110.971 87.0666 97.6582 84.2277 83.9621C81.5769 71.1783 71.1786 61.3262 58.3509 59.4459C57.7532 59.3569 57.3437 58.8006 57.4267 58.2054C57.5152 57.6046 58.0631 57.1929 58.6608 57.2764C72.385 59.2846 83.5193 69.8321 86.3583 83.5115C89.3964 98.1422 82.49 112.322 67.8914 121.44C67.7143 121.551 67.5151 121.607 67.3159 121.607H67.327Z" fill="#A6A6A6"/>
<path d="M89.0918 161.934C84.969 163.698 80.7853 165.139 76.6736 166.285L71.8867 137.941C73.2813 137.591 74.6869 137.151 76.0981 136.617L89.0918 161.94V161.934Z" fill="#A6A6A6"/>
<path d="M90.8007 166.605C90.3137 166.605 89.8433 166.338 89.6054 165.871L74.9072 137.227C74.5641 136.565 74.8242 135.747 75.4882 135.402C76.1468 135.057 76.9603 135.319 77.3034 135.986L92.0016 164.63C92.3447 165.292 92.0846 166.11 91.4205 166.455C91.2213 166.555 91.011 166.605 90.8062 166.605H90.8007Z" fill="#7D7980"/>
<path d="M22.3795 146.302C22.313 146.302 22.2411 146.302 22.1747 146.285L6.02106 143.788C5.42892 143.699 4.9696 143.226 4.89213 142.631L3.91262 135.187C3.813 134.447 4.3332 133.769 5.06921 133.669C5.80523 133.568 6.48038 134.091 6.57999 134.831L7.43222 141.268L22.5897 143.61C23.3258 143.721 23.8294 144.416 23.7131 145.151C23.6135 145.818 23.038 146.297 22.385 146.297L22.3795 146.302Z" fill="#7D7980"/>
<path d="M6.93337 162.553C6.50172 162.553 6.09775 162.347 5.84318 161.991L0.253879 154.236C-0.183304 153.63 -0.0449546 152.784 0.552714 152.345C1.15592 151.905 1.99708 152.039 2.43426 152.645L7.58638 159.794L25.45 158.642C26.1971 158.598 26.8335 159.159 26.8778 159.905C26.9276 160.65 26.3631 161.296 25.6216 161.34L7.01638 162.536C6.98871 162.536 6.96104 162.536 6.92784 162.536L6.93337 162.553Z" fill="#7D7980"/>
</g>
<defs>
<clipPath id="clip0_6127_38446">
<rect width="131" height="170" fill="white"/>
</clipPath>
</defs>
</svg>
